<?xml version="1.0" standalone="no"?>
<!DOCTYPE svg PUBLIC "-//W3C//DTD SVG 20010904//EN"
 "http://www.w3.org/TR/2001/REC-SVG-20010904/DTD/svg10.dtd">
<svg version="1.0" xmlns="http://www.w3.org/2000/svg"
 width="576.000000pt" height="433.000000pt" viewBox="0 0 576.000000 433.000000"
 preserveAspectRatio="xMidYMid meet">

<g transform="translate(0.000000,433.000000) scale(0.100000,-0.100000)"
fill="#000000" stroke="none">
<path d="M2300 2695 c-36 -19 -88 -46 -117 -59 -110 -51 -214 -190 -244 -326
-6 -24 -10 -97 -10 -161 0 -92 4 -129 20 -175 12 -32 21 -66 21 -76 0 -10 4
-18 9 -18 5 0 12 -39 15 -87 4 -49 13 -101 21 -118 8 -16 30 -75 50 -130 35
-96 73 -170 112 -215 20 -23 44 -106 37 -124 -7 -14 -105 -62 -166 -81 -26 -7
-80 -17 -120 -21 -56 -5 -80 -13 -103 -31 -16 -14 -82 -54 -145 -90 -63 -35
-122 -71 -131 -79 -9 -8 -19 -34 -22 -57 -3 -24 -26 -94 -50 -157 -43 -111
-76 -229 -113 -410 -13 -63 -26 -96 -51 -129 -28 -37 -33 -52 -33 -97 l0 -54
1415 0 c778 0 1415 1 1415 3 0 31 -48 229 -75 307 -20 58 -39 122 -44 142 -4
21 -14 46 -22 57 -60 82 -81 115 -113 177 -20 39 -36 78 -36 87 0 14 -71 101
-115 140 -42 37 -105 68 -256 125 -86 33 -175 74 -199 91 -24 17 -54 31 -68
31 -16 0 -38 14 -62 40 -33 36 -43 41 -109 50 -99 14 -121 37 -121 129 0 74 1
76 51 113 36 27 59 81 59 139 0 21 -1 21 -18 6 -10 -10 -22 -14 -25 -10 -11
11 -8 65 3 58 6 -4 10 5 10 20 0 20 4 26 15 21 17 -6 21 9 5 19 -15 9 -13 155
3 155 13 0 51 60 42 68 -3 3 -16 -5 -30 -18 l-25 -23 0 22 c0 15 5 21 16 19
15 -3 17 8 15 76 -5 189 -127 508 -216 567 -68 45 -317 119 -396 119 -19 -1
-63 -16 -99 -35z m351 -420 c23 -20 51 -41 63 -47 40 -21 50 -62 16 -71 -24
-6 -27 -48 -5 -67 30 -25 16 -38 -51 -45 -36 -4 -79 -11 -97 -17 -18 -5 -45
-12 -62 -14 -16 -2 -35 -11 -41 -19 -6 -8 -26 -15 -44 -15 -26 0 -30 -3 -21
-13 8 -10 7 -19 -4 -33 -8 -10 -15 -13 -15 -7 0 21 -53 41 -131 52 l-74 10 80
-4 c44 -2 91 -7 105 -11 23 -7 24 -7 8 9 -17 18 -158 43 -184 33 -8 -3 -14 -1
-14 4 0 6 -11 5 -25 -2 -14 -6 -28 -8 -31 -5 -8 7 15 31 39 40 10 4 17 17 17
34 0 33 9 47 33 56 9 3 17 13 17 21 0 9 13 22 28 30 16 8 52 36 80 62 l53 47
67 -7 c37 -3 81 -2 97 3 46 14 50 13 96 -24z m-484 -155 c1 -11 -2 -22 -6 -25
-7 -3 -8 31 -2 43 3 7 7 0 8 -18z m513 -111 c-25 -4 -56 -7 -70 -7 l-25 0 25
8 c14 4 45 8 70 8 l45 -1 -45 -8z m-120 -20 c-38 -15 -60 -40 -60 -66 0 -14
-4 -21 -10 -18 -5 3 -10 17 -10 31 0 26 -9 31 -27 13 -7 -7 -12 -6 -16 5 -5
12 0 16 16 17 12 0 38 6 57 13 43 16 90 21 50 5z m85 -49 c3 -5 1 -10 -4 -10
-6 0 -11 5 -11 10 0 6 2 10 4 10 3 0 8 -4 11 -10z m-385 -30 c0 -5 -5 -10 -11
-10 -5 0 -7 5 -4 10 3 6 8 10 11 10 2 0 4 -4 4 -10z m226 -60 c6 -30 21 -73
32 -95 27 -49 27 -53 0 -82 -26 -28 -77 -31 -119 -6 -32 19 -41 16 -33 -14 7
-24 50 -48 60 -32 4 7 10 6 19 -1 9 -7 32 -8 67 -3 29 4 56 6 61 5 4 -1 7 8 7
21 1 44 29 62 103 64 85 2 172 34 192 72 l14 26 1 -27 c0 -15 -12 -53 -26 -85
-14 -32 -28 -86 -31 -120 -5 -57 -13 -76 -55 -136 -7 -10 -46 -53 -85 -95 -40
-42 -73 -79 -73 -82 0 -4 -20 -16 -44 -28 -84 -42 -151 -25 -238 62 -31 31
-63 56 -72 56 -17 0 -61 27 -104 65 -30 26 -58 79 -65 128 -7 43 -28 97 -39
97 -9 0 -31 69 -34 108 -1 17 1 32 5 32 4 0 21 -20 38 -44 38 -53 77 -65 187
-54 99 10 95 9 102 30 3 11 12 17 20 14 20 -8 33 24 40 96 8 84 10 90 36 86
19 -2 25 -13 34 -58z m379 -623 c4 -13 7 -30 9 -38 6 -37 19 -58 37 -64 16 -5
19 -16 19 -63 l0 -57 -58 -46 c-90 -74 -322 -183 -350 -165 -18 11 -51 -36
-78 -109 -11 -29 -12 -29 -19 28 -7 51 -13 64 -54 105 -102 104 -171 193 -171
221 0 13 49 71 60 71 4 0 23 -14 41 -31 19 -16 45 -34 57 -40 25 -10 46 -4 37
11 -3 5 0 12 6 16 7 4 9 3 6 -3 -4 -6 10 -13 33 -17 30 -5 50 -1 85 16 24 13
45 26 45 31 0 4 -18 -2 -40 -13 -57 -29 -80 -26 -120 18 l-34 37 94 3 c104 3
125 -1 116 -23 -3 -8 -1 -15 4 -15 11 0 40 29 40 41 0 5 11 9 24 9 16 0 27 7
31 20 4 11 15 20 26 20 11 0 18 4 14 9 -8 15 34 34 62 28 15 -3 27 1 30 9 9
23 42 16 48 -9z m113 -88 c-2 -6 5 -13 15 -14 11 -2 21 -6 24 -9 7 -6 -44 -76
-55 -76 -9 0 -13 57 -6 88 2 12 9 22 14 22 6 0 9 -5 8 -11z m-474 -463 c-3 -9
-10 -13 -16 -10 -5 3 -4 12 3 20 15 18 22 13 13 -10z m-120 -10 c-6 -15 -34
-23 -34 -10 0 8 34 34 38 30 1 -2 0 -11 -4 -20z m14 -263 c2 -23 -2 -34 -17
-42 -38 -21 -67 8 -55 55 5 21 12 25 38 22 27 -3 31 -7 34 -35z m-62 -254 c14
-15 16 -24 8 -37 -14 -22 -41 -27 -59 -12 -19 16 -19 35 1 54 20 21 27 20 50
-5z m542 -20 c2 -5 7 -7 11 -5 4 3 8 -2 8 -10 0 -12 -8 -14 -36 -9 -59 10 -71
16 -71 32 0 12 8 13 43 8 23 -4 44 -11 45 -16z"/>
<path d="M2253 1608 c-12 -16 -28 -76 -17 -65 8 7 34 77 29 77 -1 0 -7 -6 -12
-12z"/>
<path d="M2338 1552 c-59 -16 -77 -36 -35 -39 12 0 42 -4 67 -7 25 -3 37 -3
28 0 -38 12 -15 21 55 23 39 1 84 4 99 6 23 3 27 0 25 -18 -2 -19 2 -22 27
-19 16 2 36 12 45 24 15 18 20 19 39 7 29 -18 41 -2 12 18 -33 23 -200 30
-200 8 0 -20 -36 -20 -44 0 -7 19 -42 18 -118 -3z"/>
<path d="M2350 400 c0 -5 7 -10 15 -10 8 0 15 5 15 10 0 6 -7 10 -15 10 -8 0
-15 -4 -15 -10z"/>
<path d="M2295 151 c-3 -5 -1 -12 5 -16 6 -4 8 -11 5 -16 -4 -5 -1 -9 4 -9 6
0 11 7 11 15 0 8 -5 15 -11 15 -5 0 -7 5 -4 10 3 6 4 10 1 10 -3 0 -7 -4 -11
-9z"/>
</g>
</svg>
